<svg width="1600" height="1000" viewBox="0 0 1600 1000" fill="none" xmlns="http://www.w3.org/2000/svg">
  <defs>
    <linearGradient id="bg" x1="0" y1="0" x2="1600" y2="1000" gradientUnits="userSpaceOnUse">
      <stop offset="0" stop-color="#08121F"/>
      <stop offset="0.45" stop-color="#10243D"/>
      <stop offset="1" stop-color="#1E3A5F"/>
    </linearGradient>

    <linearGradient id="accent" x1="200" y1="120" x2="1400" y2="820" gradientUnits="userSpaceOnUse">
      <stop offset="0" stop-color="#60A5FA" stop-opacity="0.38"/>
      <stop offset="1" stop-color="#93C5FD" stop-opacity="0.08"/>
    </linearGradient>

    <radialGradient id="glow1" cx="0" cy="0" r="1" gradientUnits="userSpaceOnUse" gradientTransform="translate(1260 180) rotate(90) scale(260 360)">
      <stop stop-color="#60A5FA" stop-opacity="0.28"/>
      <stop offset="1" stop-color="#60A5FA" stop-opacity="0"/>
    </radialGradient>

    <radialGradient id="glow2" cx="0" cy="0" r="1" gradientUnits="userSpaceOnUse" gradientTransform="translate(320 820) rotate(90) scale(280 420)">
      <stop stop-color="#38BDF8" stop-opacity="0.2"/>
      <stop offset="1" stop-color="#38BDF8" stop-opacity="0"/>
    </radialGradient>

    <filter id="blur" x="-20%" y="-20%" width="140%" height="140%">
      <feGaussianBlur stdDeviation="40"/>
    </filter>

    <pattern id="grid" width="80" height="80" patternUnits="userSpaceOnUse">
      <path d="M80 0H0V80" stroke="white" stroke-opacity="0.06" stroke-width="1"/>
    </pattern>
  </defs>

  <rect width="1600" height="1000" fill="url(#bg)"/>
  <rect width="1600" height="1000" fill="url(#grid)"/>

  <circle cx="1260" cy="180" r="260" fill="url(#glow1)" filter="url(#blur)"/>
  <circle cx="320" cy="820" r="280" fill="url(#glow2)" filter="url(#blur)"/>

  <path d="M980 0L1600 0V620C1490 540 1365 490 1210 468C1088 451 1009 404 960 340C909 274 909 162 980 0Z" fill="url(#accent)"/>
  <path d="M0 760C160 690 306 646 462 644C616 642 742 676 868 760C988 840 1138 896 1334 904C1440 909 1528 900 1600 880V1000H0V760Z" fill="white" fill-opacity="0.04"/>

  <g opacity="0.2">
    <path d="M1050 210L1320 210" stroke="#93C5FD" stroke-width="2"/>
    <path d="M1120 150L1120 380" stroke="#93C5FD" stroke-width="2"/>
    <path d="M1180 130L1180 430" stroke="#93C5FD" stroke-width="1"/>
    <path d="M1240 170L1240 470" stroke="#93C5FD" stroke-width="1"/>
  </g>

  <g opacity="0.14">
    <rect x="170" y="160" width="320" height="180" rx="22" stroke="white" stroke-width="1.5"/>
    <rect x="210" y="205" width="150" height="10" rx="5" fill="white"/>
    <rect x="210" y="235" width="220" height="8" rx="4" fill="white" fill-opacity="0.7"/>
    <rect x="210" y="260" width="180" height="8" rx="4" fill="white" fill-opacity="0.45"/>
    <rect x="210" y="300" width="95" height="32" rx="16" fill="#60A5FA"/>
  </g>

  <g opacity="0.14">
    <rect x="1040" y="620" width="300" height="170" rx="22" stroke="white" stroke-width="1.5"/>
    <rect x="1080" y="665" width="130" height="10" rx="5" fill="white"/>
    <rect x="1080" y="695" width="210" height="8" rx="4" fill="white" fill-opacity="0.68"/>
    <rect x="1080" y="720" width="170" height="8" rx="4" fill="white" fill-opacity="0.4"/>
  </g>

  <g opacity="0.16">
    <path d="M240 770L420 600L600 720L820 470L1040 610" stroke="#7DD3FC" stroke-width="3" stroke-linecap="round" stroke-linejoin="round"/>
    <circle cx="240" cy="770" r="8" fill="#7DD3FC"/>
    <circle cx="420" cy="600" r="8" fill="#7DD3FC"/>
    <circle cx="600" cy="720" r="8" fill="#7DD3FC"/>
    <circle cx="820" cy="470" r="8" fill="#7DD3FC"/>
    <circle cx="1040" cy="610" r="8" fill="#7DD3FC"/>
  </g>

  <g>
    <rect x="120" y="720" width="620" height="170" rx="30" fill="#020817" fill-opacity="0.48" stroke="white" stroke-opacity="0.1"/>
    <text x="170" y="785" fill="white" font-family="Arial, Helvetica, sans-serif" font-size="28" font-weight="700" letter-spacing="6">
      HERO BACKGROUND PLACEHOLDER
    </text>
    <text x="170" y="830" fill="#BFDBFE" font-family="Arial, Helvetica, sans-serif" font-size="20" font-weight="500">
      Replace this file with your final homepage hero image later
    </text>
    <text x="170" y="865" fill="white" fill-opacity="0.72" font-family="Arial, Helvetica, sans-serif" font-size="16">
      File: /public/hero-placeholder.svg
    </text>
  </g>
</svg>
